<svg width="31" height="30" viewBox="0 0 31 30" fill="none" xmlns="http://www.w3.org/2000/svg">
<path d="M6.83325 18H24.8333V15H6.83325V18ZM6.83325 13.5H24.8333V10.5H6.83325V13.5ZM6.83325 9H24.8333V6H6.83325V9ZM30.8333 30L24.8333 24H3.83325C3.00825 24 2.30225 23.7065 1.71525 23.1195C1.12825 22.5325 0.834252 21.826 0.833252 21V3C0.833252 2.175 1.12725 1.469 1.71525 0.882C2.30325 0.295 3.00925 0.001 3.83325 0H27.8333C28.6582 0 29.3647 0.294 29.9527 0.882C30.5408 1.47 30.8342 2.176 30.8333 3V30ZM3.83325 21H26.1082L27.8333 22.6875V3H3.83325V21Z" fill="#DBD321"/>
</svg>
