<svg width="26" height="30" viewBox="0 0 26 30" fill="none" xmlns="http://www.w3.org/2000/svg">
<path d="M2.75633 2C2.2463 2 1.75715 2.21071 1.39651 2.58579C1.03586 2.96086 0.833252 3.46957 0.833252 4V6C0.833252 6.53043 1.03586 7.03914 1.39651 7.41421C1.75715 7.78929 2.2463 8 2.75633 8H3.71787V26C3.71787 27.0609 4.12309 28.0783 4.84438 28.8284C5.56567 29.5786 6.54396 30 7.56402 30H19.1025C20.1225 30 21.1008 29.5786 21.8221 28.8284C22.5434 28.0783 22.9486 27.0609 22.9486 26V8H23.9102C24.4202 8 24.9093 7.78929 25.27 7.41421C25.6306 7.03914 25.8333 6.53043 25.8333 6V4C25.8333 3.46957 25.6306 2.96086 25.27 2.58579C24.9093 2.21071 24.4202 2 23.9102 2H17.1794C17.1794 1.46957 16.9768 0.960859 16.6161 0.585786C16.2555 0.210714 15.7664 0 15.2563 0L11.4102 0C10.9001 0 10.411 0.210714 10.0504 0.585786C9.68971 0.960859 9.4871 1.46957 9.4871 2H2.75633ZM8.52556 10C8.78058 10 9.02515 10.1054 9.20547 10.2929C9.38579 10.4804 9.4871 10.7348 9.4871 11V25C9.4871 25.2652 9.38579 25.5196 9.20547 25.7071C9.02515 25.8946 8.78058 26 8.52556 26C8.27054 26 8.02597 25.8946 7.84565 25.7071C7.66533 25.5196 7.56402 25.2652 7.56402 25V11C7.56402 10.7348 7.66533 10.4804 7.84565 10.2929C8.02597 10.1054 8.27054 10 8.52556 10ZM13.3333 10C13.5883 10 13.8328 10.1054 14.0132 10.2929C14.1935 10.4804 14.2948 10.7348 14.2948 11V25C14.2948 25.2652 14.1935 25.5196 14.0132 25.7071C13.8328 25.8946 13.5883 26 13.3333 26C13.0782 26 12.8337 25.8946 12.6533 25.7071C12.473 25.5196 12.3717 25.2652 12.3717 25V11C12.3717 10.7348 12.473 10.4804 12.6533 10.2929C12.8337 10.1054 13.0782 10 13.3333 10ZM19.1025 11V25C19.1025 25.2652 19.0012 25.5196 18.8209 25.7071C18.6405 25.8946 18.396 26 18.1409 26C17.8859 26 17.6414 25.8946 17.461 25.7071C17.2807 25.5196 17.1794 25.2652 17.1794 25V11C17.1794 10.7348 17.2807 10.4804 17.461 10.2929C17.6414 10.1054 17.8859 10 18.1409 10C18.396 10 18.6405 10.1054 18.8209 10.2929C19.0012 10.4804 19.1025 10.7348 19.1025 11Z" fill="#D3D3D3"/>
</svg>
