<svg width="30" height="30" viewBox="0 0 30 30" fill="none" xmlns="http://www.w3.org/2000/svg">
<path d="M24.0998 0.257329C23.924 0.0925612 23.6856 0 23.437 0C23.1885 0 22.9501 0.0925612 22.7743 0.257329L19.6863 3.15241L26.6366 9.66854L29.7246 6.77522C29.8119 6.69357 29.8812 6.59659 29.9284 6.48981C29.9757 6.38303 30 6.26856 30 6.15296C30 6.03735 29.9757 5.92288 29.9284 5.81611C29.8812 5.70933 29.8119 5.61234 29.7246 5.5307L24.0998 0.257329ZM25.311 10.9113L18.3607 4.39517L6.17374 15.8208H6.56185C6.81048 15.8208 7.04893 15.9134 7.22473 16.0782C7.40054 16.2431 7.49931 16.4666 7.49931 16.6997V17.5786H8.43677C8.6854 17.5786 8.92384 17.6712 9.09965 17.836C9.27546 18.0008 9.37423 18.2244 9.37423 18.4575V19.3364H10.3117C10.5603 19.3364 10.7988 19.429 10.9746 19.5938C11.1504 19.7586 11.2491 19.9822 11.2491 20.2153V21.0942H12.1866C12.4352 21.0942 12.6737 21.1868 12.8495 21.3516C13.0253 21.5164 13.1241 21.74 13.1241 21.9731V22.3369L25.311 10.9113ZM11.3091 24.0385C11.2697 23.9401 11.2494 23.8359 11.2491 23.7309V22.852H10.3117C10.0631 22.852 9.82461 22.7594 9.6488 22.5945C9.47299 22.4297 9.37423 22.2062 9.37423 21.9731V21.0942H8.43677C8.18814 21.0942 7.94969 21.0016 7.77388 20.8368C7.59808 20.6719 7.49931 20.4484 7.49931 20.2153V19.3364H6.56185C6.31322 19.3364 6.07477 19.2438 5.89897 19.079C5.72316 18.9141 5.62439 18.6906 5.62439 18.4575V17.5786H4.68693C4.57485 17.5784 4.46373 17.5593 4.35882 17.5223L4.02321 17.8352C3.93387 17.9196 3.86371 18.02 3.81697 18.1305L0.0671335 26.9195C-0.00105857 27.0792 -0.0177519 27.2542 0.019123 27.4227C0.0559978 27.5912 0.144819 27.7459 0.274576 27.8676C0.404332 27.9892 0.569317 28.0725 0.749078 28.1071C0.928838 28.1416 1.11547 28.126 1.28583 28.0621L10.6604 24.5465C10.7783 24.5027 10.8854 24.4369 10.9754 24.3531L11.3091 24.0385Z" fill="#8FC74A"/>
</svg>
