<svg width="26" height="25" viewBox="0 0 26 25" fill="none" xmlns="http://www.w3.org/2000/svg">
<path d="M5.83325 15H20.8333V12.5H5.83325V15ZM5.83325 11.25H20.8333V8.75H5.83325V11.25ZM5.83325 7.5H20.8333V5H5.83325V7.5ZM25.8333 25L20.8333 20H3.33325C2.64575 20 2.05742 19.7554 1.56825 19.2663C1.07909 18.7771 0.834085 18.1883 0.833252 17.5V2.5C0.833252 1.8125 1.07825 1.22417 1.56825 0.735C2.05825 0.245833 2.64659 0.000833333 3.33325 0H23.3333C24.0208 0 24.6095 0.245 25.0995 0.735C25.5895 1.225 25.8341 1.81333 25.8333 2.5V25ZM3.33325 17.5H21.8958L23.3333 18.9062V2.5H3.33325V17.5Z" fill="#373536"/>
</svg>
